<?xml version="1.0" encoding="UTF-8" standalone="no"?>
<svg
   id="Layer_1"
   data-name="Layer 1"
   viewBox="0 0 280 300"
   version="1.1"
   sodipodi:docname="ANGULAR LOGO.svg"
   inkscape:version="1.1 (1:1.1+202106032008+af4d65493e)"
   xmlns:inkscape="http://www.inkscape.org/namespaces/inkscape"
   xmlns:sodipodi="http://sodipodi.sourceforge.net/DTD/sodipodi-0.dtd"
   xmlns="http://www.w3.org/2000/svg"
   xmlns:svg="http://www.w3.org/2000/svg">
  <sodipodi:namedview
     id="namedview15"
     pagecolor="#ffffff"
     bordercolor="#666666"
     borderopacity="1.0"
     inkscape:pageshadow="2"
     inkscape:pageopacity="0.0"
     inkscape:pagecheckerboard="0"
     showgrid="false"
     inkscape:zoom="1.253936"
     inkscape:cx="277.92486"
     inkscape:cy="167.8714"
     inkscape:window-width="1366"
     inkscape:window-height="704"
     inkscape:window-x="0"
     inkscape:window-y="27"
     inkscape:window-maximized="1"
     inkscape:current-layer="Layer_1" />
  <defs
     id="defs4">
    <style
       id="style2">.cls-1{fill:#e23337;}.cls-2{fill:#b63031;}.cls-3{fill:#fff;}</style>
  </defs>
  <title
     id="title6">ANGULAR LOGO</title>
  <g
     id="g835">
    <path
       class="cls-1"
       d="M59.32,92.8l79.61-28.37,81.75,27.86L207.45,197.62l-68.52,37.95L71.48,198.13Z"
       id="path8" />
    <path
       class="cls-2"
       d="M220.68,92.29,138.93,64.43V235.57l68.52-37.88,13.23-105.4Z"
       id="path10" />
    <path
       class="cls-3"
       d="M139.05,84.41h0L89.45,194.79l18.53-.32,10-24.9h44.5l10.91,25.22,17.71.31-52-110.69Zm.13,35.36L156,154.82H124.43l14.75-35Z"
       id="path12" />
  </g>
  <g
     id="g1753"
     inkscape:export-filename="/home/heenluy/Documentos/Curso Angular/2 - Básico/course-manager/src/assets/images/basic.png"
     inkscape:export-xdpi="96"
     inkscape:export-ydpi="96">
    <path
       class="cls-1"
       d="m 285.74774,92.8 79.61,-28.37 81.75,27.86 -13.23,105.33 -68.52,37.95 -67.45,-37.44 z"
       id="path837"
       style="fill:#6f917c" />
    <path
       class="cls-2"
       d="m 447.10774,92.29 -81.75,-27.86 v 171.14 l 68.52,-37.88 z"
       id="path839"
       style="fill:#536c5d" />
    <path
       class="cls-3"
       d="m 365.47774,84.41 v 0 l -49.6,110.38 18.53,-0.32 10,-24.9 h 44.5 l 10.91,25.22 17.71,0.31 -52,-110.69 z m 0.13,35.36 16.82,35.05 h -31.57 l 14.75,-35 z"
       id="path841"
       style="fill:#ffffff;fill-opacity:1" />
  </g>
</svg>
